# xmcd CD database file generated by Grip 2.95
# 
# Track frame offsets:
#       150
#       16213
#       30620
#       45222
#       58946
#       72333
#       79678
#       87057
#       98067
#       115825
#       121094
#       127864
#       138610
#       155775
# 
# Disc length: 2089 seconds
# 
# Revision: 3
# Processed by: cddbd v1.5PL3 Copyright (c) Steve Scherf et al.
# Submitted via: Grip 2.95
# 
DISCID=ad08270e
DTITLE=The Damn Fans - Hellbilly Leftovers
DYEAR=1900
DGENRE=
TTITLE0=O-H-I-O - Foothill Hobo
TTITLE1=Whiskey, Weed and Women - hewhocannotbenamed
TTITLE2=Questioningly - the killer
TTITLE3=Annabel Lee - c-bear
TTITLE4=I Slit Her Throat - BirdTV
TTITLE5=I'm Number One - longtooth devil
TTITLE6=Death To Hindus - maggotbrain
TTITLE7=Haydee - Rich Cro
TTITLE8=Whore - Junkrod
TTITLE9=Braille - Velvet Friend
TTITLE10=Hybrid Moments - TVC
TTITLE11=Alone and Dying - Chad M
TTITLE12=Juke Joint Jumpin' - Cussin' Board Allstars
TTITLE13=Thank You
EXTD=
EXTT0=
EXTT1=
EXTT2=
EXTT3=
EXTT4=
EXTT5=
EXTT6=
EXTT7=
EXTT8=
EXTT9=
EXTT10=
EXTT11=
EXTT12=
EXTT13=
PLAYORDER=
